<svg width="4469" height="1765" viewBox="0 0 4469 1765" fill="none" xmlns="http://www.w3.org/2000/svg">
<g clip-path="url(#clip0_189_472)">
<path d="M4458.61 92.8399C4458.61 92.8399 4450.75 171.91 4085.74 169.71C3681.93 167.28 3687.29 89.5699 3687.29 89.5699L3698.79 69.2499L3733.97 50.8899C3733.97 50.8899 3758.31 92.8299 4074.09 92.8299C4389.87 92.8299 4411.64 51.8599 4411.64 51.8599C4411.64 51.8599 4430.28 57.7599 4447.68 68.7299C4465.08 79.6999 4458.61 92.8399 4458.61 92.8399Z" fill="#826FA8"/>
<path d="M4072.8 7.66992C4006.2 7.66992 3952.36 10.0399 3908.98 13.6599C3769.42 25.2999 3738.06 49.8499 3738.06 49.8499C3738.06 49.8499 3822.57 92.8299 4074.09 92.8299C4325.61 92.8299 4411.64 51.8599 4411.64 51.8599C4411.64 51.8599 4353.66 7.66992 4072.81 7.66992H4072.8Z" fill="#3D2566"/>
<path d="M4377.88 39.4099C4377.88 39.4099 4288.59 67.7599 4084.05 67.7599C3879.5 67.7599 3779.41 37.6599 3779.41 37.6599L3739.23 50.8999C3739.23 50.8999 3819.48 92.8399 4079.62 92.8399C4339.76 92.8399 4415.43 51.8499 4415.43 51.8499L4377.88 39.4099Z" fill="#332055"/>
<path d="M3829.96 152.17C3829.96 152.17 3820.45 127 3871.38 115.52C3922.31 104.04 4022.84 112.67 4089.03 112.67C4155.22 112.67 4229.15 105.51 4269.3 120.89C4309.45 136.27 4311.09 152.91 4311.09 152.91C4311.09 152.91 4460.9 135.86 4460.9 89.5699C4460.9 71.8599 4415.43 51.8399 4415.43 51.8399C4415.43 51.8399 4300.93 92.8299 4085.74 92.8299C3870.55 92.8299 3733.97 50.8899 3733.97 50.8899C3733.97 50.8899 3687.28 65.9799 3687.28 89.5599C3687.28 127.44 3829.95 152.15 3829.95 152.15L3829.96 152.17Z" fill="#685389"/>
<path d="M4075.29 169.76C4288.25 169.76 4460.89 133.437 4460.89 88.63C4460.89 43.8231 4288.25 7.5 4075.29 7.5C3862.33 7.5 3689.69 43.8231 3689.69 88.63C3689.69 133.437 3862.33 169.76 4075.29 169.76Z" stroke="#11082F" stroke-width="15" stroke-miterlimit="10"/>
<path d="M4413.8 50.5901C4348.34 75.7601 4221.29 92.8401 4075.29 92.8401C3929.5 92.8401 3802.61 75.8201 3737.07 50.7001" stroke="#11082F" stroke-width="15" stroke-miterlimit="10"/>
<path d="M3907.38 161.68C3778.54 148.55 3689.7 120.77 3689.7 88.63C3689.7 43.82 3862.34 7.5 4075.3 7.5C4288.26 7.5 4460.9 43.82 4460.9 88.63C4460.9 120.63 4372.85 148.3 4244.95 161.5" stroke="#11082F" stroke-width="15" stroke-miterlimit="10"/>
<path d="M1898.78 555.42C1898.78 555.42 1819.71 563.28 1821.91 928.29C1824.34 1332.1 1902.05 1326.74 1902.05 1326.74L1922.37 1315.24L1940.73 1280.06C1940.73 1280.06 1898.79 1255.72 1898.79 939.94C1898.79 624.16 1939.76 602.39 1939.76 602.39C1939.76 602.39 1933.86 583.75 1922.89 566.35C1911.92 548.95 1898.78 555.42 1898.78 555.42Z" fill="#826FA8"/>
<path d="M1983.94 941.22C1983.94 1007.82 1981.57 1061.66 1977.95 1105.04C1966.31 1244.6 1941.76 1275.96 1941.76 1275.96C1941.76 1275.96 1898.78 1191.45 1898.78 939.93C1898.78 688.41 1939.75 602.38 1939.75 602.38C1939.75 602.38 1983.94 660.36 1983.94 941.21V941.22Z" fill="#3D2566"/>
<path d="M1952.2 636.15C1952.2 636.15 1923.85 725.44 1923.85 929.98C1923.85 1134.52 1953.95 1234.62 1953.95 1234.62L1940.71 1274.8C1940.71 1274.8 1898.77 1194.55 1898.77 934.41C1898.77 674.27 1939.76 598.6 1939.76 598.6L1952.2 636.15Z" fill="#332055"/>
<path d="M1839.45 1184.07C1839.45 1184.07 1864.62 1193.58 1876.1 1142.65C1887.58 1091.72 1878.95 991.19 1878.95 925C1878.95 858.81 1886.11 784.88 1870.73 744.73C1855.35 704.58 1838.71 702.94 1838.71 702.94C1838.71 702.94 1855.76 553.13 1902.05 553.13C1919.76 553.13 1939.78 598.6 1939.78 598.6C1939.78 598.6 1898.79 713.1 1898.79 928.29C1898.79 1143.48 1940.73 1280.06 1940.73 1280.06C1940.73 1280.06 1925.64 1326.75 1902.06 1326.75C1864.18 1326.75 1839.47 1184.08 1839.47 1184.08L1839.45 1184.07Z" fill="#685389"/>
<path d="M1902.99 1324.33C1947.8 1324.33 1984.12 1151.69 1984.12 938.73C1984.12 725.769 1947.8 553.13 1902.99 553.13C1858.18 553.13 1821.86 725.769 1821.86 938.73C1821.86 1151.69 1858.18 1324.33 1902.99 1324.33Z" stroke="#11082F" stroke-width="15" stroke-miterlimit="10"/>
<path d="M1941.02 600.22C1915.85 665.68 1898.77 792.73 1898.77 938.73C1898.77 1084.73 1915.79 1211.41 1940.91 1276.95" stroke="#11082F" stroke-width="15" stroke-miterlimit="10"/>
<path d="M4244.13 1296.48C4235.46 1221.15 4242.65 332.92 4242.65 332.92V15.41C4242.65 15.41 4130.04 7.69995 4067.53 7.69995C4005.02 7.69995 3906.69 14.65 3906.69 14.65V1332.7C3906.69 1332.7 3859.84 1374.59 3839 1382.31C3818.16 1390.03 3778.31 1419.37 3659.35 1419.37C3540.39 1419.37 326.56 1421.17 326.56 1421.17L318.2 1380.76V1107.34H1976.65L1983.92 946.5L1976.97 769.08H334.1C334.1 769.08 205.28 770.67 111.5 846.24C17.73 921.81 11.47 1068.44 11.47 1068.44V1414.48C11.47 1414.48 3.93999 1487.35 84.5 1626.92C165.06 1766.49 383.06 1756.84 383.06 1756.84H3846.39C3846.39 1756.84 4025.65 1755.3 4130.24 1617.58C4250.39 1459.36 4244.13 1296.48 4244.13 1296.48Z" fill="#505050"/>
<path d="M1976.2 771.37L1024.8 767.23C1024.8 767.23 1004.29 768.48 971.49 769.91L1669.06 771.37H1976.2Z" fill="#342E2E"/>
<path d="M1984.12 927.81C1984.45 874.24 1976.21 769.08 1976.21 769.08L1983.61 927.81H1984.12Z" fill="#F6BA64"/>
<path d="M4244.93 17.59C4244.93 17.59 4106.19 9.67 4075.29 7.5L4077.32 1225.81C4077.32 1225.81 4094.39 1375.81 4004.39 1489.81C3914.72 1603.39 3798.39 1603.81 3798.39 1603.81L351.06 1601.81C351.06 1601.81 268.39 1614.81 211.39 1539.37C170.37 1485.08 168.39 1394.82 168.39 1394.82L164.39 1080.03C164.39 1080.03 168.39 1002.81 256.39 947.81C324.11 905.49 433.06 914.48 433.06 914.48L1922 927.28C1922.25 922.74 1922.4 918.03 1922.4 913.15C1922.4 832.08 1896.27 779.35 1890.74 769.09H324.06C324.06 769.09 177.39 767.82 97.3596 858.79C17.3297 949.76 8.38965 1085.82 8.38965 1085.82V1409.82C8.38965 1409.82 13.5096 1446.1 15.7196 1461.57C17.9296 1477.04 42.3896 1581.82 119.83 1666.43C197.27 1751.04 349.73 1756.58 349.73 1756.58C349.73 1756.58 3841.06 1756.84 3853.07 1756.58C3865.08 1756.32 3932.35 1742.98 3932.35 1742.98C3932.35 1742.98 4056.88 1715.53 4147.73 1599.15C4249.73 1468.48 4244.72 1195.97 4244.72 1195.97L4244.93 17.59Z" fill="#F6BA64"/>
<path d="M1906.05 999.14H393.06C393.06 999.14 354.7 1024.08 338.87 1062.37C323.04 1100.66 321.86 1105.04 321.86 1105.04H1977.96L1984.13 938.73L1983.62 927.8L1922.01 927.27C1919.52 971.69 1906.06 999.14 1906.06 999.14H1906.05Z" fill="#342E2E"/>
<path d="M1889.71 767.24C1889.71 767.24 1890.08 767.87 1890.73 769.08H1976.2L1889.71 767.24Z" fill="#505050"/>
<path d="M1922 927.28L1983.61 927.81L1976.21 769.08H1890.74C1896.27 779.34 1922.4 832.08 1922.4 913.14C1922.4 918.02 1922.26 922.73 1922 927.27V927.28Z" fill="#A66D38"/>
<path d="M360.09 1756.58H3841.73C3841.73 1756.58 4060.15 1750.33 4157.94 1585.07C4255.73 1419.81 4244.95 1252.48 4244.95 1252.48V118.92L4244.18 14.59L4194.61 7.7L4130.61 7.5V1235.81C4130.61 1235.81 4138.66 1395.14 4071.05 1513.14C4003.44 1631.14 3813.26 1655.81 3813.26 1655.81H318.17C213.39 1655.81 100.39 1620.7 100.39 1620.7L72.1699 1609.09C72.1699 1609.09 104.98 1661.08 171.73 1702.81C219.85 1732.89 289.02 1756.58 360.09 1756.58Z" fill="#A66D38"/>
<path d="M3908.99 16.54V332.92V1344.26" stroke="#11082F" stroke-width="16.3" stroke-miterlimit="10" stroke-linecap="round"/>
<path d="M1981.47 1050.92L1979.45 1068.44L1981.47 1036.7V1050.92Z" fill="#F6BA64"/>
<path d="M1976.97 1107.33H1974.96L1979.45 1068.44L1976.97 1107.33Z" fill="#F6BA64"/>
<path d="M1977 775.08C1869.6 776.23 1742.34 777.26 1635.15 777.05L1623.7 776.94L1617.93 776.83L1614.97 776.74L1613.39 776.66C1218.18 777.26 724.59 777.11 321.01 777.49C241.25 782.12 159.47 809.53 101.82 866.33C47.8404 920.31 27.8304 998.58 19.2604 1072.52C17.7804 1086.2 16.8304 1100.14 16.5804 1113.82L16.5504 1155.89C16.5904 1210.94 16.3004 1350.05 16.5304 1403.34C20.0204 1459.97 33.9604 1516.59 58.3004 1567.85C107.93 1674.03 204.69 1730.93 318.54 1745.37C342.49 1748.45 366.73 1749.73 390.85 1748.78C745.8 1747.79 1300.74 1749.97 1660.03 1749.25C2236.86 1749.12 3256.99 1749.72 3822.76 1748.39L3842.42 1748.36C3849.03 1748.44 3854.95 1748.14 3861.46 1747.65C3912.64 1743.38 3963.17 1728.92 4008.98 1705.73C4156.62 1632.06 4214.6 1477.3 4232.09 1321.77C4234.92 1296.08 4236.78 1270.07 4236.66 1244.28C4236.27 959.41 4236.97 652.68 4237.69 376.61C4236.75 274.15 4238.78 162.82 4239.83 60.1801C4239.83 60.1801 4240.51 14.6101 4240.51 14.6001C4240.55 12.1501 4242.56 10.2001 4245 10.2401C4247.42 10.2801 4249.35 12.2501 4249.36 14.6601C4249.86 344.93 4253.26 677.51 4252.2 1008.27C4252.5 1060.42 4252.04 1193.75 4252.18 1244.19C4252.02 1297.2 4245.55 1349.95 4234.69 1401.79C4206.66 1535.65 4142.02 1655.74 4015.53 1718.65C3967.88 1742.61 3915.7 1757.4 3862.53 1761.7C3851.79 1762.76 3833.82 1762.3 3822.69 1762.37C3261.96 1761.32 2232.77 1762.12 1660 1762.18C1301.18 1762.85 743.64 1761.34 391.53 1764.25C366.48 1765.32 341.39 1764.01 316.53 1760.86C197.89 1746.05 95.7204 1685.82 43.8104 1574.81C19.1204 1522.98 5.06038 1466.64 0.690384 1409.5C0.460384 1406.14 0.230384 1401.94 0.260384 1398.51C0.230384 1379.98 0.250384 1343.71 0.230384 1324.68C0.770384 1277.51 -1.10962 1136.9 1.05038 1092.1C7.09038 1014.22 25.0304 932.71 75.3304 870.64C131.93 803.89 218.79 770.44 304.13 761.88C310.34 761.27 316.88 760.85 323.16 760.68C324.23 760.66 325.05 760.68 325.94 760.67H347.03C742.54 760.95 1221.59 760.6 1613.84 761.73C1638.58 762.77 1678.34 762.4 1703.56 762.7C1760.94 762.85 1917.45 763.01 1976.94 763.07C1984.9 763.41 1984.83 774.72 1976.99 775.06L1977 775.08Z" fill="#11082F"/>
<path d="M1829.93 1106.65C1843.06 1235.49 1870.84 1324.33 1902.98 1324.33C1947.79 1324.33 1984.11 1151.69 1984.11 938.73C1984.11 725.77 1947.79 553.13 1902.98 553.13C1870.98 553.13 1843.31 641.18 1830.11 769.08" stroke="#11082F" stroke-width="15" stroke-miterlimit="10"/>
<path d="M1974.95 1105.04H1649.79H647.36H327.39" stroke="#11082F" stroke-width="16.3" stroke-miterlimit="10" stroke-linecap="round"/>
<path d="M433.06 978.02C433.06 978.02 386.06 989.79 351.06 1042.15C316.06 1094.51 318.2 1131.48 318.2 1131.48V1380.76C318.2 1380.76 317.39 1415.48 349.39 1470.15C381.39 1524.82 414.61 1539.37 414.61 1539.37" stroke="#11082F" stroke-width="16.3" stroke-miterlimit="10" stroke-linecap="round"/>
<path d="M3906.69 1334.81C3906.69 1334.81 3867.11 1371.81 3813.27 1394.81C3759.43 1417.81 3659.32 1421.16 3659.32 1421.16H334.1" stroke="#11082F" stroke-width="16.3" stroke-miterlimit="10" stroke-linecap="round"/>
</g>
<defs>
<clipPath id="clip0_189_472">
<rect width="4468.39" height="1764.63" fill="white"/>
</clipPath>
</defs>
</svg>
