<svg width="223" height="24" viewBox="0 0 223 24" fill="none" xmlns="http://www.w3.org/2000/svg">
<path d="M49.1774 2.89631C49.0079 2.44956 48.7074 2.06377 48.3149 1.78893C47.7558 1.39663 47.1508 1.12947 46.5299 1.12649C45.1962 1.11954 43.8704 1.18509 42.5586 1.15331C41.8019 1.13543 41.0702 1.1692 40.3424 1.17913C39.8765 1.18509 39.3501 1.17847 38.7631 1.15926C38.1082 1.13741 37.4876 1.12815 36.9012 1.13146C35.844 1.13741 34.7289 1.04803 33.5999 1.11656C32.9391 1.15623 32.3031 1.38068 31.765 1.7641C31.5199 1.9419 31.308 2.16107 31.139 2.41164C30.7577 2.95292 30.4302 3.52399 30.0519 4.05731C29.8622 4.32216 29.6878 4.587 29.5288 4.85184C29.2772 5.27096 28.9827 5.66922 28.7301 6.07741C28.3135 6.73819 27.8802 7.39136 27.4303 8.03692C27.2187 8.40737 26.9871 8.77186 26.7385 9.1294C26.3538 9.6816 25.9831 10.2424 25.6264 10.8118C25.5116 10.9956 25.3988 11.1634 25.288 11.3173L24.9296 11.8139L23.4062 9.49985C23.3588 9.39943 23.3038 9.3028 23.2414 9.21084C22.8102 8.57256 22.3859 7.92932 21.9686 7.28112C21.7051 6.87194 21.4126 6.47467 21.155 6.05357C20.6918 5.29678 20.1737 4.57872 19.7074 3.82591C19.4669 3.43659 19.1793 3.07706 18.9457 2.68178C18.4136 1.78794 17.5571 1.198 16.5139 1.12947C15.9392 1.10264 15.37 1.25131 14.8826 1.55554C14.5113 1.75951 14.1938 2.04813 13.9562 2.39774C13.2814 3.47631 13.3073 4.68201 13.9991 5.7447C14.3246 6.24128 14.677 6.74283 14.9974 7.24437C15.4866 8.00183 15.9911 8.78179 16.5109 9.58427C16.7385 9.93684 16.995 10.2725 17.2027 10.6042C17.6772 11.361 18.1661 12.1079 18.6692 12.8448L21.2967 16.8175C21.6582 17.3103 21.9938 17.8215 22.302 18.3489C22.5198 18.7126 22.7665 19.0584 23.0398 19.3828C23.4232 19.8897 23.8494 20.3632 24.3136 20.7981C24.4564 20.9302 24.659 21.0156 24.8018 21.1655C24.8537 21.2192 24.9036 21.2668 24.9515 21.3086C25.2641 21.5514 25.589 21.7782 25.9249 21.9879C27.1725 22.7318 28.56 23.2134 30.002 23.4031C32.8531 23.7686 35.4331 23.131 37.7418 21.4903C37.9302 21.3579 38.253 21.093 38.7102 20.6958C39.3737 20.0678 39.9605 19.364 40.4582 18.5992C41.2282 17.416 42.1021 16.0868 43.0798 14.6117C44.3183 12.7445 45.5496 10.8717 46.7735 8.99333C46.8806 8.82847 46.9968 8.655 47.1219 8.47292C47.2397 8.30011 47.3515 8.12233 47.4543 7.94058C47.7166 7.57443 47.9688 7.202 48.211 6.82327C48.5505 6.29193 48.9288 5.78144 49.1784 5.22329C49.5052 4.49431 49.5048 3.71865 49.1774 2.89631ZM29.982 23.3316H29.97C29.978 23.3307 29.986 23.3307 29.994 23.3316H29.982ZM41.0692 7.15896C40.6699 7.69229 40.3464 8.2723 39.9451 8.84734C39.3651 9.67365 38.8969 10.4523 38.3428 11.2617C38.1571 11.5338 37.9784 11.8179 37.8067 12.1139C37.5841 12.4962 37.3076 12.8548 37.061 13.2322C36.5352 14.0525 35.9785 14.899 35.3908 15.7717C35.2727 15.932 35.144 16.0843 35.0055 16.2275C34.6061 16.5851 34.2388 16.9357 33.7426 17.18C32.8061 17.6588 31.7396 17.8249 30.7008 17.6537C29.9455 17.5499 29.2278 17.2612 28.6123 16.8135L32.6325 10.7185L35.0015 7.07256C35.0274 7.03284 35.0623 6.99969 35.1034 6.97573C35.1445 6.95177 35.1906 6.93765 35.2381 6.93451C35.857 6.89875 36.5009 6.94642 37.1129 6.93451C38.0194 6.91663 38.8865 6.91001 39.7145 6.91464C39.8373 6.91464 40.0329 6.90273 40.3005 6.87889C40.5521 6.85307 41.1101 6.78355 41.0692 7.15896Z" fill="white"/>
<path d="M29.9951 23.3235L29.9824 23.3288H29.9697C29.9779 23.326 29.9865 23.3242 29.9951 23.3235Z" fill="white"/>
<path d="M29.9951 23.3235L29.9824 23.3288H29.9697C29.9779 23.326 29.9865 23.3242 29.9951 23.3235Z" fill="white"/>
<path d="M24.9545 21.3097C24.8014 21.4163 24.6534 21.5235 24.5103 21.6315C24.3643 21.7407 24.2123 21.8418 24.055 21.9344C23.3453 22.3619 22.5904 22.7103 21.8039 22.9732C19.6991 23.6506 17.4381 23.6825 15.3149 23.0646C15.1881 23.0259 15.0634 22.9805 14.9415 22.9285C14.0049 22.6145 13.1196 22.1654 12.314 21.5957C12.0564 21.4063 11.8235 21.2279 11.6152 21.0604C10.6508 20.2817 9.82521 19.2578 9.16433 18.1802C8.91342 17.7737 8.64721 17.3615 8.36569 16.9437C8.08417 16.5259 7.81496 16.1141 7.55806 15.7082C7.38735 15.4361 7.17571 15.16 7.02197 14.9137C6.65859 14.3383 6.32049 13.8189 6.00769 13.3554C5.57642 12.7148 5.19307 12.0723 4.76081 11.4634C4.49127 11.0841 4.26166 10.6689 3.9981 10.2856C3.6081 9.73998 3.22475 9.16163 2.84806 8.5505C2.60647 8.15324 2.32395 7.80563 2.08835 7.42128C1.80483 6.9578 1.50534 6.5026 1.18987 6.05568C0.874407 5.60875 0.673415 5.234 0.586896 4.93142C0.293394 3.98295 0.480077 2.88749 1.13996 2.15056C1.87171 1.33716 2.97584 0.94486 4.05501 1.22593C4.67798 1.37836 5.23054 1.73655 5.62235 2.24193C5.85595 2.54187 6.20868 3.07155 6.68055 3.83099C7.04094 4.41894 7.44026 4.97313 7.80664 5.55413C8.05488 5.9514 8.3211 6.35296 8.60528 6.75884C8.96667 7.28223 9.28712 7.85132 9.64851 8.38067C10.0868 9.02921 10.4651 9.69661 10.9243 10.3124C11.1609 10.6302 11.3416 10.9738 11.5583 11.2976C11.8245 11.6995 12.0907 12.1027 12.3569 12.5073C12.6005 12.9006 12.8511 13.2879 13.1086 13.6693C13.3303 14.0003 13.5815 14.3863 13.8624 14.8273C14.1247 15.251 14.4138 15.6576 14.7279 16.0449C15.1758 16.5683 15.7287 16.9928 16.3511 17.2913L16.7395 17.4304C17.7461 17.7909 18.8426 17.8202 19.8672 17.5138C20.3818 17.3646 20.8672 17.1296 21.3027 16.8186C21.6642 17.3114 21.9997 17.8226 22.308 18.35C22.5257 18.7137 22.7724 19.0595 23.0458 19.3839C23.4292 19.8908 23.8554 20.3643 24.3196 20.7992C24.4624 20.9313 24.665 21.0167 24.8078 21.1666C24.8577 21.2196 24.9066 21.2673 24.9545 21.3097Z" fill="white"/>
<path d="M54.3496 3.08496H58.5535L62.0006 18.1949L65.9789 3.08496H70.3504L74.1051 18.1115L77.5802 3.08496H81.814L76.3473 22.544H71.7231L68.0523 8.68839L64.2129 22.544L59.6207 22.5718L54.3496 3.08496Z" fill="white"/>
<path d="M90.4421 22.7956C85.9307 22.7956 82.6553 19.6731 82.6553 14.8225C82.6553 9.94308 85.8498 6.84839 90.4421 6.84839C94.9264 6.84839 98.0931 9.88747 98.0931 14.4878C98.0977 14.9919 98.0599 15.4956 97.9803 15.9934H86.6315C86.8312 18.2777 88.3965 19.5609 90.3582 19.5609C92.0393 19.5609 92.9648 18.7246 93.4689 17.6937H97.7007C96.8592 20.5372 94.2815 22.7956 90.4421 22.7956ZM86.6595 13.3725H94.029C93.9731 11.3375 92.3478 10.0553 90.3302 10.0553C88.4524 10.0553 86.9679 11.2541 86.6595 13.3725Z" fill="white"/>
<path d="M109.302 6.84487C113.281 6.84487 116.39 9.93957 116.39 14.7624C116.39 19.5852 113.279 22.7921 109.302 22.7921C106.864 22.7921 105.126 21.6768 104.174 20.339V22.5408H100.25V1.91382H104.176V9.36254C105.126 7.93735 106.948 6.84487 109.302 6.84487ZM108.269 10.2772C106.172 10.2772 104.176 11.8941 104.176 14.822C104.176 17.7498 106.165 19.3657 108.269 19.3657C110.399 19.3657 112.389 17.6932 112.389 14.7653C112.389 11.8375 110.395 10.2772 108.269 10.2772Z" fill="white"/>
<path d="M133.598 3.08496H147.946V6.23527H142.734V22.544H138.81V6.23527H133.598V3.08496Z" fill="white"/>
<path d="M156.997 22.7956C152.514 22.7956 149.123 19.6731 149.123 14.8225C149.123 9.94308 152.626 6.84839 157.109 6.84839C161.592 6.84839 165.095 9.94308 165.095 14.8225C165.095 19.6731 161.509 22.7956 156.997 22.7956ZM156.997 19.394C159.071 19.394 161.06 17.8884 161.06 14.8255C161.06 11.7308 159.127 10.2569 157.053 10.2569C154.98 10.2569 153.102 11.7348 153.102 14.8255C153.102 17.8884 154.896 19.394 156.997 19.394Z" fill="white"/>
<path d="M174.175 22.7956C169.692 22.7956 166.301 19.6731 166.301 14.8225C166.301 9.94308 169.804 6.84839 174.287 6.84839C178.771 6.84839 182.274 9.94308 182.274 14.8225C182.274 19.6731 178.687 22.7956 174.175 22.7956ZM174.175 19.394C176.249 19.394 178.239 17.8884 178.239 14.8255C178.239 11.7308 176.305 10.2569 174.231 10.2569C172.158 10.2569 170.28 11.7348 170.28 14.8255C170.28 17.8884 172.074 19.394 174.175 19.394Z" fill="white"/>
<path d="M184.459 1.91382H188.382V22.5438H184.459V1.91382Z" fill="white"/>
<path d="M191.549 1.91382H195.472V13.651L200.684 7.09614H205.784L198.947 14.8428L205.835 22.5368H200.735L195.467 15.9581V22.5368H191.544L191.549 1.91382Z" fill="white"/>
<path d="M206.793 2.97177C206.793 1.6896 207.803 0.6875 209.203 0.6875C210.577 0.6875 211.613 1.69159 211.613 2.97177C211.613 4.25196 210.577 5.25605 209.203 5.25605C207.8 5.25605 206.793 4.25593 206.793 2.97177ZM207.214 7.09737H211.137V22.544H207.214V7.09737Z" fill="white"/>
<path d="M214.921 10.3052H213.071V7.09923H214.921V3.28052H218.872V7.09923H222.346V10.3052H218.872V17.7767C218.872 18.8086 219.292 19.2546 220.525 19.2546H222.346V22.5439H219.879C216.909 22.5439 214.92 21.2895 214.92 17.7489L214.921 10.3052Z" fill="white"/>
<path d="M131.776 16.9139C131.776 20.2311 129.422 22.6832 125.136 22.6832C121.614 22.6832 118.838 21.1557 118.083 17.9279C118.744 16.6001 121.688 16.4134 121.688 16.4134C121.773 18.1703 122.95 19.4246 125.052 19.4246C127.013 19.4246 128.021 18.1981 128.021 16.5812C128.021 14.2969 126.564 13.4597 123.651 13.4597H122.837V10.2498H123.651C125.947 10.2498 127.63 9.60822 127.63 7.60203C127.63 6.01297 126.648 5.06549 124.856 5.06549C122.95 5.06549 122.137 6.29105 121.998 7.57223H121.773C121.026 7.55833 118.666 7.3875 118.448 5.86896C119.264 3.18742 121.683 1.74634 124.967 1.74634C129.17 1.74634 131.413 4.11801 131.413 7.12829C131.413 9.66383 129.816 11.2251 128.331 11.7266V11.8399C130.403 12.4795 131.776 14.1539 131.776 16.9139Z" fill="white"/>
</svg>
